<svg width="100" height="100" viewBox="0 0 100 100" fill="none" xmlns="http://www.w3.org/2000/svg">
<path d="M100 0H0V100H100V0Z" fill="#FF005B"/>
<path d="M28.3165 54.9679L29.8414 57.6085H26.7626L28.3165 54.9679ZM28.3153 48.7812L21.4062 60.7122H35.2008L28.3153 48.7812Z" fill="white"/>
<path d="M49.2701 77.3888H46.0234V66.1719H49.2707V77.3888H49.2701Z" fill="white"/>
<path d="M53.9726 77.3888H50.7266V66.1719H53.9726V77.3888Z" fill="white"/>
<path d="M72.0434 52.0243C70.3761 52.0243 69.0452 53.3819 69.0452 55.0219C69.0452 56.6588 70.3761 57.9934 72.0434 57.9934C73.6816 57.9934 75.0137 56.6588 75.0137 55.0219C75.0137 53.3819 73.681 52.0243 72.0434 52.0243ZM72.0434 61.2594C68.5919 61.2594 65.7773 58.4722 65.7773 55.0225C65.7773 51.5691 68.5919 48.7812 72.0434 48.7812C75.4701 48.7812 78.281 51.5691 78.281 55.0225C78.281 58.4722 75.4695 61.2594 72.0434 61.2594Z" fill="white"/>
<path d="M64.6236 28.0966L67.8175 24.9003L65.5006 22.6094L62.3302 25.8039L62.3248 25.7948L60.0078 28.0888L60.0127 28.0972L60.0078 28.1021L64.1254 32.2069L60.9599 35.373L63.2533 37.69L68.7472 32.1973L64.6236 28.0966Z" fill="white"/>
<path d="M42.686 26.106L40.392 23.7891L36.4205 27.76L32.4502 23.7891L30.1562 26.106L34.129 30.0527L30.1562 34.0248L32.4502 36.3424L36.4205 32.3697L40.392 36.3424L42.686 34.0248L38.7253 30.0527L42.686 26.106Z" fill="white"/>
</svg>
